{
  "accessors": [
    {
      "bufferView": 2,
      "componentType": 5126,
      "count": 65532,
      "max": [
        27.5894832611084,
        31.08130645751953,
        3.1920061111450195
      ],
      "min": [
        -35.44392776489258,
        -31.950092315673828,
        -7.997323036193848
      ],
      "type": "VEC3"
    },
    {
      "bufferView": 2,
      "byteOffset": 786384,
      "componentType": 5126,
      "count": 65532,
      "max": [
        0.9999756217002869,
        0.9999777674674988,
        1.0
      ],
      "min": [
        -0.9999533295631409,
        -0.9999984502792358,
        -1.0
      ],
      "type": "VEC3"
    },
    {
      "bufferView": 3,
      "componentType": 5126,
      "count": 65532,
      "max": [
        0.9999606013298035,
        0.9260808825492859,
        0.9999666810035706,
        1.0
      ],
      "min": [
        -0.9896330237388611,
        -0.9999999403953552,
        -0.9999962449073792,
        -1.0
      ],
      "type": "VEC4"
    },
    {
      "bufferView": 1,
      "componentType": 5126,
      "count": 65532,
      "max": [
        0.9952229857444763,
        0.9908339977264404
      ],
      "min": [
        0.0019529999699443579,
        0.0019529999699443579
      ],
      "type": "VEC2"
    },
    {
      "bufferView": 0,
      "componentType": 5125,
      "count": 355440,
      "type": "SCALAR"
    },
    {
      "bufferView": 2,
      "byteOffset": 1572768,
      "componentType": 5126,
      "count": 25696,
      "max": [
        27.5894832611084,
        31.05253028869629,
        3.102293014526367
      ],
      "min": [
        -35.44392776489258,
        -31.950092315673828,
        -7.895355224609375
      ],
      "type": "VEC3"
    },
    {
      "bufferView": 2,
      "byteOffset": 1881120,
      "componentType": 5126,
      "count": 25696,
      "max": [
        0.9999781250953674,
        0.9997977614402771,
        1.0
      ],
      "min": [
        -0.9999533295631409,
        -0.9999984502792358,
        -0.9999997615814209
      ],
      "type": "VEC3"
    },
    {
      "bufferView": 3,
      "byteOffset": 1048512,
      "componentType": 5126,
      "count": 25696,
      "max": [
        0.9999606013298035,
        0.9260808825492859,
        0.9999843835830688,
        1.0
      ],
      "min": [
        -0.9896330237388611,
        -0.9999999403953552,
        -0.9999678730964661,
        -1.0
      ],
      "type": "VEC4"
    },
    {
      "bufferView": 1,
      "byteOffset": 524256,
      "componentType": 5126,
      "count": 25696,
      "max": [
        0.9980469942092896,
        0.9832080006599426
      ],
      "min": [
        0.0037219999358057976,
        0.014027000404894352
      ],
      "type": "VEC2"
    },
    {
      "bufferView": 0,
      "byteOffset": 1421760,
      "componentType": 5125,
      "count": 94560,
      "type": "SCALAR"
    }
  ],
  "asset": {
    "extras": {
      "author": "Andy Woodhead (https://sketchfab.com/Andywoodhead)",
      "license": "CC-BY-NC-4.0 (http://creativecommons.org/licenses/by-nc/4.0/)",
      "source": "https://sketchfab.com/3d-models/roman-coin-constantine-ii-zbrush-sculpt-df65cc0befa040969e9d5fa476e6ebaf",
      "title": "Roman Coin - Constantine II - Zbrush sculpt"
    },
    "generator": "Sketchfab-13.74.0",
    "version": "2.0"
  },
  "bufferViews": [
    {
      "buffer": 0,
      "byteLength": 1800000,
      "name": "floatBufferViews",
      "target": 34963
    },
    {
      "buffer": 0,
      "byteLength": 729824,
      "byteOffset": 1800000,
      "byteStride": 8,
      "name": "floatBufferViews",
      "target": 34962
    },
    {
      "buffer": 0,
      "byteLength": 2189472,
      "byteOffset": 2529824,
      "byteStride": 12,
      "name": "floatBufferViews",
      "target": 34962
    },
    {
      "buffer": 0,
      "byteLength": 1459648,
      "byteOffset": 4719296,
      "byteStride": 16,
      "name": "floatBufferViews",
      "target": 34962
    }
  ],
  "buffers": [
    {
      "byteLength": 6178944,
      "uri": "scene.bin"
    }
  ],
  "images": [
    {
      "uri": "textures/coin_dec_75k_baseColor.jpeg"
    },
    {
      "uri": "textures/coin_dec_75k_metallicRoughness.png"
    },
    {
      "uri": "textures/coin_dec_75k_normal.png"
    }
  ],
  "materials": [
    {
      "doubleSided": true,
      "name": "coin_dec_75k",
      "normalTexture": {
        "index": 2
      },
      "occlusionTexture": {
        "index": 1
      },
      "pbrMetallicRoughness": {
        "baseColorTexture": {
          "index": 0
        },
        "metallicRoughnessTexture": {
          "index": 1
        }
      }
    }
  ],
  "meshes": [
    {
      "name": "defaultMaterial",
      "primitives": [
        {
          "attributes": {
            "NORMAL": 1,
            "POSITION": 0,
            "TANGENT": 2,
            "TEXCOORD_0": 3
          },
          "indices": 4,
          "material": 0,
          "mode": 4
        }
      ]
    },
    {
      "name": "defaultMaterial",
      "primitives": [
        {
          "attributes": {
            "NORMAL": 6,
            "POSITION": 5,
            "TANGENT": 7,
            "TEXCOORD_0": 8
          },
          "indices": 9,
          "material": 0,
          "mode": 4
        }
      ]
    }
  ],
  "nodes": [
    {
      "children": [
        1
      ],
      "matrix": [
        1.0,
        0.0,
        0.0,
        0.0,
        0.0,
        2.220446049250313e-16,
        -1.0,
        0.0,
        0.0,
        1.0,
        2.220446049250313e-16,
        0.0,
        0.0,
        0.0,
        0.0,
        1.0
      ],
      "name": "Sketchfab_model"
    },
    {
      "children": [
        2
      ],
      "matrix": [
        1.0,
        0.0,
        0.0,
        0.0,
        0.0,
        -4.371139006309477e-08,
        0.999999999999999,
        0.0,
        0.0,
        -0.999999999999999,
        -4.371139006309477e-08,
        0.0,
        0.0,
        0.0,
        0.0,
        1.0
      ],
      "name": "Collada visual scene group"
    },
    {
      "children": [
        3,
        4
      ],
      "name": "coin"
    },
    {
      "mesh": 0,
      "name": "defaultMaterial"
    },
    {
      "mesh": 1,
      "name": "defaultMaterial"
    }
  ],
  "samplers": [
    {
      "magFilter": 9729,
      "minFilter": 9987,
      "wrapS": 10497,
      "wrapT": 10497
    }
  ],
  "scene": 0,
  "scenes": [
    {
      "name": "Sketchfab_Scene",
      "nodes": [
        0
      ]
    }
  ],
  "textures": [
    {
      "sampler": 0,
      "source": 0
    },
    {
      "sampler": 0,
      "source": 1
    },
    {
      "sampler": 0,
      "source": 2
    }
  ]
}
