<svg viewBox="0 0 331 40" fill="currentColor" xmlns="http://www.w3.org/2000/svg">
<path d="M0.000156522 0.720037H6.86416V28.176H17.7602V35.04H0.000156522V0.720037ZM65.576 23.088C65.576 39.408 40.76 39.408 40.76 23.088V0.720037H47.624V23.04C47.624 30.24 58.76 30.24 58.76 23.04V0.720037H65.576V23.088ZM86.8832 35.04L97.6832 16.752L88.3712 0.672038H96.6752L101.859 10.224L106.995 0.672038H115.107L105.747 16.752L116.547 35.04H108.435L101.859 23.28L95.2352 35.04H86.8832ZM190.757 8.68804C189.461 8.01604 187.781 7.20004 184.805 7.20004C171.221 7.20004 171.221 28.128 184.805 28.128C187.781 28.128 190.133 27.264 191.429 26.592L192.341 33.696C190.229 34.56 187.205 35.136 184.805 35.136C161.525 35.136 161.573 0.288037 184.805 0.288037C187.205 0.288037 189.509 0.720037 191.573 1.63204L190.757 8.68804ZM231.584 35.52C207.968 35.52 207.968 0.144036 231.584 0.144036C255.2 0.144036 255.2 35.52 231.584 35.52ZM231.584 28.416C245.312 28.416 245.312 7.20004 231.584 7.20004C217.856 7.20004 217.856 28.416 231.584 28.416ZM279.857 35.04H272.993V0.720037H279.857V35.04ZM311.715 16.368V35.04H304.851V3.8147e-05H306.675L324.003 20.16V0.768037H330.915V35.76H329.091L311.715 16.368Z" fill="currentColor"/>
</svg>
