{
  "accessors": [
    {
      "bufferView": 2,
      "componentType": 5126,
      "count": 65532,
      "max": [
        0.2994993031024933,
        0.040481287986040115,
        0.2995123565196991
      ],
      "min": [
        -0.3117170035839081,
        -0.04220685362815857,
        -0.2909511625766754
      ],
      "type": "VEC3"
    },
    {
      "bufferView": 2,
      "byteOffset": 786384,
      "componentType": 5126,
      "count": 65532,
      "max": [
        0.9990729093551636,
        1.0,
        0.9998076558113098
      ],
      "min": [
        -0.9999345541000366,
        -0.999997079372406,
        -0.9998151659965515
      ],
      "type": "VEC3"
    },
    {
      "bufferView": 3,
      "componentType": 5126,
      "count": 65532,
      "max": [
        0.9995425343513489,
        0.9999446868896484,
        0.9999989867210388,
        1.0
      ],
      "min": [
        -0.9999951720237732,
        -0.9973235130310059,
        -0.9999961853027344,
        -1.0
      ],
      "type": "VEC4"
    },
    {
      "bufferView": 1,
      "componentType": 5126,
      "count": 65532,
      "max": [
        0.9959895014762878,
        0.9371988773345947
      ],
      "min": [
        0.00023548328317701817,
        0.00016696006059646606
      ],
      "type": "VEC2"
    },
    {
      "bufferView": 1,
      "byteOffset": 524256,
      "componentType": 5126,
      "count": 65532,
      "max": [
        0.9959895014762878,
        0.9371988773345947
      ],
      "min": [
        0.00023548328317701817,
        0.00016696006059646606
      ],
      "type": "VEC2"
    },
    {
      "bufferView": 0,
      "componentType": 5125,
      "count": 332133,
      "type": "SCALAR"
    },
    {
      "bufferView": 2,
      "byteOffset": 1572768,
      "componentType": 5126,
      "count": 65532,
      "max": [
        0.2190849334001541,
        0.0404151976108551,
        0.29810452461242676
      ],
      "min": [
        -0.3117170035839081,
        -0.0414586141705513,
        -0.2928445339202881
      ],
      "type": "VEC3"
    },
    {
      "bufferView": 2,
      "byteOffset": 2359152,
      "componentType": 5126,
      "count": 65532,
      "max": [
        0.9652116894721985,
        0.9999997019767761,
        0.9895217418670654
      ],
      "min": [
        -0.9994610548019409,
        -0.9999995827674866,
        -0.9999186396598816
      ],
      "type": "VEC3"
    },
    {
      "bufferView": 3,
      "byteOffset": 1048512,
      "componentType": 5126,
      "count": 65532,
      "max": [
        0.9999885559082031,
        0.9998263120651245,
        0.9999989867210388,
        1.0
      ],
      "min": [
        -0.9999687671661377,
        -0.9959440231323242,
        -0.9999961853027344,
        1.0
      ],
      "type": "VEC4"
    },
    {
      "bufferView": 1,
      "byteOffset": 1048512,
      "componentType": 5126,
      "count": 65532,
      "max": [
        0.9981499910354614,
        0.9099856019020081
      ],
      "min": [
        0.002038355451077223,
        0.0011691711843013763
      ],
      "type": "VEC2"
    },
    {
      "bufferView": 1,
      "byteOffset": 1572768,
      "componentType": 5126,
      "count": 65532,
      "max": [
        0.9981499910354614,
        0.9099856019020081
      ],
      "min": [
        0.002038355451077223,
        0.0011691711843013763
      ],
      "type": "VEC2"
    },
    {
      "bufferView": 0,
      "byteOffset": 1328532,
      "componentType": 5125,
      "count": 337458,
      "type": "SCALAR"
    },
    {
      "bufferView": 2,
      "byteOffset": 3145536,
      "componentType": 5126,
      "count": 53130,
      "max": [
        0.3132947087287903,
        0.04030362516641617,
        0.2995101809501648
      ],
      "min": [
        -0.30792197585105896,
        -0.04220685362815857,
        -0.29194527864456177
      ],
      "type": "VEC3"
    },
    {
      "bufferView": 2,
      "byteOffset": 3783096,
      "componentType": 5126,
      "count": 53130,
      "max": [
        0.99990314245224,
        0.9999999403953552,
        0.9999312162399292
      ],
      "min": [
        -0.9901024103164673,
        -0.9999998807907104,
        -0.9999186396598816
      ],
      "type": "VEC3"
    },
    {
      "bufferView": 3,
      "byteOffset": 2097024,
      "componentType": 5126,
      "count": 53130,
      "max": [
        0.9999885559082031,
        0.9996118545532227,
        0.9999912977218628,
        1.0
      ],
      "min": [
        -0.9999951720237732,
        -0.9925215840339661,
        -0.9999781847000122,
        -1.0
      ],
      "type": "VEC4"
    },
    {
      "bufferView": 1,
      "byteOffset": 2097024,
      "componentType": 5126,
      "count": 53130,
      "max": [
        0.9998140335083008,
        0.9372234344482422
      ],
      "min": [
        0.0014577375259250402,
        0.0017095208168029785
      ],
      "type": "VEC2"
    },
    {
      "bufferView": 1,
      "byteOffset": 2522064,
      "componentType": 5126,
      "count": 53130,
      "max": [
        0.9998140335083008,
        0.9372234344482422
      ],
      "min": [
        0.0014577375259250402,
        0.0017095208168029785
      ],
      "type": "VEC2"
    },
    {
      "bufferView": 0,
      "byteOffset": 2678364,
      "componentType": 5125,
      "count": 230409,
      "type": "SCALAR"
    }
  ],
  "asset": {
    "extras": {
      "author": "Frank McMains (https://sketchfab.com/frankmcmains)",
      "license": "CC-BY-4.0 (http://creativecommons.org/licenses/by/4.0/)",
      "source": "https://sketchfab.com/3d-models/roman-silver-denarius-of-septimius-severus-8ea364975d664de9898e5564c7bdcb10",
      "title": "Roman Silver Denarius of Septimius Severus"
    },
    "generator": "Sketchfab-16.16.0",
    "version": "2.0"
  },
  "bufferViews": [
    {
      "buffer": 0,
      "byteLength": 3600000,
      "name": "floatBufferViews",
      "target": 34963
    },
    {
      "buffer": 0,
      "byteLength": 2947104,
      "byteOffset": 3600000,
      "byteStride": 8,
      "name": "floatBufferViews",
      "target": 34962
    },
    {
      "buffer": 0,
      "byteLength": 4420656,
      "byteOffset": 6547104,
      "byteStride": 12,
      "name": "floatBufferViews",
      "target": 34962
    },
    {
      "buffer": 0,
      "byteLength": 2947104,
      "byteOffset": 10967760,
      "byteStride": 16,
      "name": "floatBufferViews",
      "target": 34962
    }
  ],
  "buffers": [
    {
      "byteLength": 13914864,
      "uri": "scene.bin"
    }
  ],
  "images": [
    {
      "uri": "textures/material0_baseColor.jpeg"
    },
    {
      "uri": "textures/material0_metallicRoughness.png"
    },
    {
      "uri": "textures/material0_normal.jpeg"
    }
  ],
  "materials": [
    {
      "doubleSided": true,
      "name": "material0",
      "normalTexture": {
        "index": 2,
        "texCoord": 1
      },
      "occlusionTexture": {
        "index": 1
      },
      "pbrMetallicRoughness": {
        "baseColorTexture": {
          "index": 0
        },
        "metallicRoughnessTexture": {
          "index": 1
        },
        "roughnessFactor": 0.5558918325793907
      }
    }
  ],
  "meshes": [
    {
      "name": "Model_material0_0",
      "primitives": [
        {
          "attributes": {
            "NORMAL": 1,
            "POSITION": 0,
            "TANGENT": 2,
            "TEXCOORD_0": 3,
            "TEXCOORD_1": 4
          },
          "indices": 5,
          "material": 0,
          "mode": 4
        }
      ]
    },
    {
      "name": "Model_material0_0",
      "primitives": [
        {
          "attributes": {
            "NORMAL": 7,
            "POSITION": 6,
            "TANGENT": 8,
            "TEXCOORD_0": 9,
            "TEXCOORD_1": 10
          },
          "indices": 11,
          "material": 0,
          "mode": 4
        }
      ]
    },
    {
      "name": "Model_material0_0",
      "primitives": [
        {
          "attributes": {
            "NORMAL": 13,
            "POSITION": 12,
            "TANGENT": 14,
            "TEXCOORD_0": 15,
            "TEXCOORD_1": 16
          },
          "indices": 17,
          "material": 0,
          "mode": 4
        }
      ]
    }
  ],
  "nodes": [
    {
      "children": [
        1
      ],
      "matrix": [
        1.0,
        0.0,
        0.0,
        0.0,
        0.0,
        2.220446049250313e-16,
        -1.0,
        0.0,
        0.0,
        1.0,
        2.220446049250313e-16,
        0.0,
        0.0,
        0.0,
        0.0,
        1.0
      ],
      "name": "Sketchfab_model"
    },
    {
      "children": [
        2
      ],
      "matrix": [
        1.0,
        0.0,
        0.0,
        0.0,
        0.0,
        -1.0,
        0.0,
        0.0,
        0.0,
        0.0,
        -1.0,
        0.0,
        0.0,
        0.0,
        0.0,
        1.0
      ],
      "name": "model.fbx"
    },
    {
      "children": [
        3
      ],
      "name": "RootNode"
    },
    {
      "children": [
        4,
        5,
        6
      ],
      "name": "Model"
    },
    {
      "mesh": 0,
      "name": "Model_material0_0"
    },
    {
      "mesh": 1,
      "name": "Model_material0_0"
    },
    {
      "mesh": 2,
      "name": "Model_material0_0"
    }
  ],
  "samplers": [
    {
      "magFilter": 9729,
      "minFilter": 9987,
      "wrapS": 10497,
      "wrapT": 10497
    }
  ],
  "scene": 0,
  "scenes": [
    {
      "name": "Sketchfab_Scene",
      "nodes": [
        0
      ]
    }
  ],
  "textures": [
    {
      "sampler": 0,
      "source": 0
    },
    {
      "sampler": 0,
      "source": 1
    },
    {
      "sampler": 0,
      "source": 2
    }
  ]
}
